<svg width="30" height="29" viewBox="0 0 30 29" fill="none" xmlns="http://www.w3.org/2000/svg">
<g id="ph:meta-logo-bold">
<path id="Vector" d="M27.9601 16.9522C27.9601 18.8362 27.5831 20.4573 26.8693 21.641C25.953 23.1614 24.5288 23.9658 22.751 23.9658C19.3577 23.9658 17.0765 19.7089 14.6621 15.2024C12.9079 11.9288 10.7307 7.85526 8.94065 7.85526C8.07806 7.85526 7.02081 8.90357 6.18171 10.5907C5.22192 12.5754 4.7123 14.7476 4.68925 16.9522C4.68925 18.3283 4.93986 19.5008 5.39409 20.2548C5.81587 20.9552 6.39428 21.2808 7.21324 21.2808C8.75158 21.2808 10.6401 18.0363 11.261 16.9745C11.4404 16.6668 11.7346 16.443 12.0791 16.3522C12.4235 16.2615 12.7898 16.3113 13.0975 16.4906C13.4052 16.67 13.6291 16.9643 13.7198 17.3087C13.8106 17.6531 13.7608 18.0194 13.5814 18.3271C12.5846 20.0367 11.732 21.236 10.8963 22.1064C9.69584 23.3572 8.49314 23.9658 7.21324 23.9658C5.43548 23.9658 4.01126 23.1614 3.09497 21.641C2.38118 20.4573 2.00415 18.8362 2.00415 16.9522C2.00415 12.0328 4.64226 5.17017 8.94065 5.17017C12.3339 5.17017 14.6152 9.42716 17.0295 13.9337C18.786 17.2072 20.9643 21.2808 22.751 21.2808C23.57 21.2808 24.1484 20.9552 24.5702 20.2548C25.0244 19.5008 25.275 18.3283 25.275 16.9522C25.2523 14.7477 24.7431 12.5755 23.7836 10.5907C22.9446 8.90357 21.8873 7.85526 21.0236 7.85526C20.3836 7.85526 19.6128 8.41466 18.7312 9.51443C18.5086 9.79246 18.1848 9.97069 17.8308 10.0099C17.4769 10.0492 17.1218 9.94618 16.8438 9.72364C16.5658 9.5011 16.3875 9.17723 16.3483 8.82327C16.3091 8.46932 16.412 8.11427 16.6346 7.83624C18.0722 6.04282 19.5076 5.17017 21.0236 5.17017C22.9983 5.17017 24.8275 6.67046 26.1868 9.39472C27.3271 11.7526 27.9326 14.3332 27.9601 16.9522Z" fill="white"/>
</g>
</svg>
